<?xml version="1.0" standalone="no"?>
<!DOCTYPE svg PUBLIC "-//W3C//DTD SVG 20010904//EN"
 "http://www.w3.org/TR/2001/REC-SVG-20010904/DTD/svg10.dtd">
<svg version="1.0" xmlns="http://www.w3.org/2000/svg"
 width="300.000000pt" height="300.000000pt" viewBox="0 0 300.000000 300.000000"
 preserveAspectRatio="xMidYMid meet">
<metadata>
Created by potrace 1.10, written by Peter Selinger 2001-2011
</metadata>
<g transform="translate(0.000000,300.000000) scale(0.100000,-0.100000)"
fill="#000000" stroke="none">
<path d="M1401 2809 c-92 -11 -246 -51 -329 -85 l-63 -27 -23 22 c-52 49 -204
66 -320 36 -138 -36 -294 -154 -346 -260 -35 -72 -38 -151 -10 -210 24 -50 87
-103 133 -112 15 -3 27 -7 27 -9 0 -2 -13 -24 -29 -49 -97 -153 -154 -426
-132 -627 6 -51 20 -129 31 -173 21 -78 96 -247 140 -313 20 -29 20 -32 5 -32
-36 0 -83 -40 -100 -84 -14 -36 -16 -71 -13 -185 2 -94 7 -144 15 -153 7 -6
13 -29 13 -49 0 -29 7 -43 31 -63 17 -14 42 -29 55 -32 26 -7 97 0 128 12 16
6 17 4 7 -14 -14 -26 -14 -92 0 -129 15 -39 67 -91 103 -102 49 -15 1626 -8
1652 7 65 36 104 124 87 198 -9 40 -9 44 6 39 35 -14 110 -17 143 -6 45 15 80
52 82 88 2 16 11 41 21 56 30 46 31 114 1 171 -22 44 -23 51 -10 70 31 45 2
113 -67 155 l-26 16 48 84 c55 96 100 214 125 327 21 96 23 310 5 404 -35 178
-106 339 -210 476 -46 61 -66 96 -61 105 19 34 21 100 6 151 -41 141 -213 230
-358 185 -47 -15 -49 -14 -127 19 -191 83 -429 117 -640 93z m345 -54 c49 -9
114 -23 144 -32 50 -14 170 -60 179 -69 2 -1 -9 -14 -24 -27 l-28 -23 -59 23
c-137 56 -350 90 -487 78 -119 -10 -275 -50 -392 -99 -11 -5 -18 -1 -22 11 -2
10 -8 25 -11 34 -7 17 40 38 168 75 160 45 371 57 532 29z m-801 -60 c27 -17
56 -46 66 -65 40 -75 10 -189 -71 -270 l-41 -41 27 -36 c28 -37 92 -72 134
-74 25 -1 24 -1 -5 -14 -60 -28 -141 -11 -192 40 l-34 34 -42 -19 c-147 -65
-341 -39 -412 54 -32 43 -43 107 -25 161 18 53 118 156 192 195 105 56 161 70
264 67 82 -3 97 -6 139 -32z m771 -40 c86 -15 235 -57 263 -74 12 -8 11 -15
-3 -50 -40 -102 8 -222 110 -272 43 -20 45 -23 29 -36 -11 -7 -29 -13 -42 -13
-32 0 -30 -28 3 -36 40 -10 122 2 144 21 10 9 23 15 28 14 19 -8 105 -116 153
-194 94 -152 147 -325 156 -510 7 -145 -7 -238 -48 -327 -41 -87 -108 -188
-125 -188 -21 0 -18 8 20 51 73 85 146 279 146 385 0 101 -58 276 -97 291 -7
3 -13 11 -13 19 0 7 -17 23 -38 35 -27 16 -46 37 -61 71 -15 33 -30 50 -46 54
-14 3 -25 9 -25 13 0 9 -72 41 -92 41 -9 0 -21 7 -29 16 -7 8 -21 13 -32 10
-10 -2 -33 4 -50 15 -42 25 -107 25 -140 -1 -27 -21 -50 -76 -45 -107 6 -34
-45 -28 -99 13 -26 20 -50 38 -52 40 -2 2 10 15 27 29 25 21 32 36 38 81 6 55
23 84 48 84 20 0 66 39 66 56 0 12 -4 12 -20 4 -31 -17 -59 3 -52 36 3 16 -2
41 -13 60 -15 28 -16 38 -6 62 24 56 -22 178 -86 231 -159 132 -421 37 -448
-161 -4 -23 -13 -60 -22 -80 -21 -50 -11 -102 26 -129 29 -21 29 -21 15 -71
-7 -28 -14 -51 -16 -52 -2 -2 -30 -13 -63 -26 -33 -13 -86 -40 -117 -62 -49
-32 -66 -38 -111 -38 -76 0 -139 -25 -197 -77 -60 -54 -99 -125 -107 -196 -4
-37 -14 -61 -35 -86 -26 -29 -63 -100 -96 -181 l-11 -25 0 30 c-2 57 21 210
44 301 37 148 118 302 219 418 l34 39 38 -18 c82 -39 177 -28 239 26 53 47 47
59 -30 59 -39 0 -78 6 -99 17 l-35 16 33 33 c48 47 80 118 84 191 l4 62 52 20
c202 75 398 97 582 66z m650 -17 c90 -42 144 -142 125 -229 -18 -81 -114 -146
-203 -137 -36 3 -46 0 -61 -19 -10 -13 -32 -30 -49 -39 -28 -15 -29 -15 -19 5
21 38 14 58 -24 65 -48 9 -110 70 -126 124 -22 77 9 157 82 208 81 56 185 65
275 22z m-688 -57 c43 -22 98 -87 108 -128 8 -30 6 -32 -34 -35 -25 -2 -31 -6
-27 -19 5 -16 -18 -43 -39 -45 -30 -3 -34 -5 -40 -20 -3 -8 -2 -12 3 -9 5 3
12 1 16 -5 4 -6 -5 -10 -19 -10 -14 0 -26 -5 -26 -11 0 -7 -9 -9 -22 -6 -13 3
-40 0 -60 -7 -23 -8 -38 -10 -38 -4 0 6 -11 7 -24 4 -33 -8 -42 9 -14 28 12 9
18 16 12 16 -5 0 -19 -7 -31 -15 -21 -15 -23 -14 -38 15 -9 17 -23 30 -34 30
-29 0 -38 53 -16 88 30 46 68 82 87 82 12 0 16 4 12 12 -4 7 -3 8 4 4 6 -4 9
-13 6 -20 -9 -22 23 -26 83 -11 32 8 75 15 96 15 64 0 122 -47 101 -81 -4 -8
-3 -9 4 -5 7 4 12 2 12 -3 0 -6 4 -11 9 -11 6 0 6 12 0 30 -12 32 -91 118 -97
102 -1 -5 -25 -7 -52 -4 -27 2 -63 -1 -80 -7 -19 -6 -39 -7 -47 -2 -13 7 -12
11 8 25 29 20 10 21 -35 2 -63 -26 -114 -83 -135 -150 -17 -52 -20 -56 -20
-28 -2 78 73 169 162 198 57 19 152 12 205 -15z m116 -224 c8 -13 8 -20 -3
-26 -7 -5 -10 -14 -7 -20 4 -6 2 -11 -3 -11 -6 0 -11 5 -11 10 0 6 -7 10 -15
10 -8 0 -15 5 -15 11 0 6 9 8 23 4 16 -6 19 -4 11 4 -6 7 -20 13 -32 14 -16 1
-19 4 -10 15 15 17 48 12 62 -11z m-438 -30 c5 -15 0 -26 -15 -38 -25 -20 -27
-44 -6 -53 16 -6 21 -36 6 -36 -21 0 -61 63 -61 95 0 57 60 82 76 32z m39 -7
c4 -11 4 -33 0 -49 -5 -24 0 -35 31 -65 20 -20 41 -36 46 -36 4 0 9 -12 9 -27
l2 -28 4 28 c6 40 25 33 51 -21 25 -49 71 -86 97 -76 12 5 15 -3 15 -34 0 -50
-8 -72 -26 -72 -9 0 -14 13 -15 38 -1 27 -3 30 -6 12 -7 -35 -18 -44 -41 -31
-18 9 -19 16 -11 43 11 40 11 38 -1 38 -5 0 -10 -11 -10 -23 0 -31 -9 -38 -31
-26 -15 8 -17 14 -9 35 6 14 10 33 9 42 -1 18 0 20 -21 -37 l-9 -25 -20 21
c-17 17 -19 24 -10 41 6 11 11 27 10 34 0 7 -7 -3 -16 -22 -14 -33 -16 -34
-29 -15 -17 23 -17 30 -4 56 6 11 7 19 2 19 -6 0 -13 -10 -16 -22 -6 -23 -7
-23 -21 -3 -12 15 -14 35 -8 95 4 41 7 87 7 103 -1 32 12 36 21 7z m330 -3 c9
-15 26 -24 47 -25 35 -3 62 -21 41 -29 -7 -2 -9 -11 -6 -20 4 -11 3 -14 -6 -9
-7 4 -22 9 -34 11 -19 3 -47 11 -124 31 -7 2 -13 7 -13 13 0 13 47 20 59 8 6
-6 11 -7 11 -3 0 4 -10 16 -22 27 l-23 18 27 1 c18 0 33 -8 43 -23z m823 -93
c90 -118 157 -269 193 -429 8 -36 13 -118 13 -205 -1 -123 -5 -160 -27 -242
-27 -101 -86 -239 -138 -319 -28 -45 -33 -47 -74 -47 l-44 0 33 46 c47 66 92
158 126 260 77 232 64 505 -35 719 -36 78 -114 200 -146 229 -19 17 -19 18 3
41 12 13 27 22 32 20 6 -2 35 -34 64 -73z m-1037 35 c17 6 47 11 66 11 34 0
113 -34 113 -49 0 -4 -29 -8 -64 -8 -54 0 -63 3 -58 16 4 14 2 13 -15 -1 -11
-10 -30 -18 -43 -18 -19 0 -21 2 -10 16 8 8 9 14 4 12 -17 -5 -74 12 -74 22 0
6 9 6 24 -1 18 -9 33 -8 57 0z m951 -97 c70 -94 119 -191 154 -308 25 -81 28
-104 28 -254 1 -193 -16 -273 -89 -428 -45 -94 -121 -212 -137 -212 -11 0 -8
5 46 85 55 81 93 177 107 266 17 108 6 334 -20 431 -42 155 -123 310 -223 431
l-40 47 34 0 c18 0 40 5 48 10 26 17 34 11 92 -68z m-643 36 c23 -18 37 -34
31 -36 -6 -2 -23 6 -36 19 l-25 24 10 -28 c7 -18 7 -27 1 -27 -6 0 -14 10 -19
23 -5 13 -17 29 -27 37 -17 14 -17 14 0 -12 21 -33 8 -37 -20 -7 -16 17 -16
22 -4 29 25 16 45 11 89 -22z m-1064 -75 c-60 -76 -132 -206 -163 -298 -46
-137 -56 -210 -55 -415 1 -215 -3 -220 -46 -55 -62 235 -23 510 101 718 l52
87 45 1 c36 0 85 12 118 28 2 0 -22 -29 -52 -66z m966 40 c7 -7 11 -15 8 -17
-6 -7 -169 25 -169 33 0 11 149 -4 161 -16z m-1152 -62 c-44 -66 -91 -179
-116 -277 -13 -51 -17 -109 -17 -224 1 -166 17 -254 67 -364 19 -41 23 -63 19
-114 -2 -34 -8 -62 -12 -62 -8 0 -60 104 -92 185 -65 165 -82 405 -40 578 28
113 73 227 119 298 l37 56 36 -9 37 -10 -38 -57z m1081 -1 c10 0 25 -3 33 -6
8 -3 21 1 28 8 8 7 23 20 33 28 16 12 15 8 -4 -17 -13 -18 -29 -33 -34 -34
-37 -3 -84 5 -105 18 -13 8 -20 10 -17 4 4 -6 5 -11 2 -11 -7 0 -56 73 -56 83
0 5 23 -10 51 -32 29 -23 60 -41 69 -41z m28 29 c32 -12 28 -31 -5 -23 -31 8
-83 32 -83 39 0 6 57 -5 88 -16z m-303 -69 c26 -27 95 -163 95 -186 0 -9 -39
-3 -45 6 -3 5 -13 6 -21 3 -9 -3 -20 0 -25 8 -11 18 -12 72 0 65 4 -3 6 6 3
21 l-5 26 -22 -37 c-25 -41 -47 -60 -85 -70 -20 -6 -22 -5 -10 4 12 10 10 11
-10 6 -31 -7 -110 22 -110 40 0 8 7 14 16 14 10 0 14 -5 10 -16 -10 -26 12 -5
28 26 l14 30 -31 -16 c-18 -9 -47 -28 -65 -41 -19 -14 -56 -31 -83 -38 -110
-29 -188 -102 -220 -207 -26 -81 -24 -111 7 -145 38 -41 90 -38 186 9 80 40
232 172 226 197 -2 8 2 15 8 18 21 7 11 -32 -19 -77 -72 -108 -142 -160 -262
-195 -33 -9 -74 -26 -92 -36 l-32 -20 -30 62 c-35 68 -37 91 -17 167 19 69 55
130 105 175 53 48 39 47 -30 -1 -42 -29 -61 -52 -87 -103 -30 -58 -58 -175
-34 -141 6 10 11 1 14 -30 3 -23 18 -70 33 -102 28 -58 28 -60 11 -105 -26
-74 -32 -164 -12 -192 20 -30 21 -50 1 -42 -16 6 -52 68 -66 113 -7 24 -7 24
-7 -5 -1 -61 22 -96 98 -154 40 -31 75 -61 77 -67 2 -5 -13 -10 -33 -11 -45
-1 -85 -29 -97 -69 -13 -39 -14 -40 -34 -16 -10 11 -36 30 -57 41 -44 22 -76
64 -76 99 0 12 -4 22 -10 22 -15 0 -12 -41 5 -70 20 -36 19 -40 -14 -40 -38 0
-42 7 -31 56 5 21 15 73 21 114 12 79 26 77 29 -5 3 -73 17 -86 21 -18 2 33 1
59 -2 57 -9 -5 -19 76 -19 147 0 64 21 130 66 206 23 41 28 44 34 28 5 -13 1
-27 -11 -40 -40 -44 -63 -117 -67 -215 -5 -119 6 -113 17 9 5 50 11 94 15 98
3 3 14 -1 24 -10 31 -28 72 -15 72 22 0 11 -6 9 -24 -8 -18 -17 -26 -19 -32
-10 -4 7 1 19 15 30 21 17 21 18 1 24 -11 3 -20 14 -19 23 0 11 3 12 6 5 8
-22 21 -14 33 21 8 26 8 39 -1 54 -9 15 -10 35 -2 84 28 167 132 269 277 271
54 0 67 5 121 41 51 36 118 68 187 90 10 3 20 21 24 43 6 26 9 32 12 18 2 -11
19 -36 37 -55z m411 44 c-3 -9 -9 -33 -12 -55 -9 -56 -24 -59 -24 -5 0 55 8
76 27 76 10 0 13 -6 9 -16z m-52 -122 c-6 -13 -9 -8 -14 18 -3 19 -1 41 4 49
9 11 12 7 14 -18 2 -18 0 -40 -4 -49z m-26 17 c3 -23 -2 -37 -14 -46 -32 -24
-39 -15 -36 41 4 51 5 54 25 47 16 -6 23 -18 25 -42z m-188 -35 c25 -14 65
-29 90 -33 l45 -6 0 -78 c0 -72 -1 -76 -20 -71 -11 4 -33 18 -50 32 -16 14
-43 30 -59 37 -22 9 -35 28 -57 79 -33 77 -25 84 51 40z m514 17 c3 -5 -5 -12
-19 -15 -34 -9 -65 -61 -65 -111 l-1 -40 -19 24 c-32 37 -27 94 11 125 30 26
82 35 93 17z m36 -26 c0 -9 -46 -71 -73 -97 l-27 -27 0 25 c0 32 25 80 47 93
18 11 53 15 53 6z m67 -10 c3 -9 13 -15 22 -14 29 3 41 -1 41 -12 0 -5 -4 -8
-9 -5 -5 4 -17 3 -26 0 -11 -5 -13 -9 -5 -14 7 -5 5 -14 -9 -31 -11 -13 -20
-18 -21 -11 0 6 -7 12 -15 12 -22 0 -18 17 8 35 19 13 20 17 7 25 -18 11 -40
13 -24 2 15 -10 -26 -66 -51 -69 -11 -1 -15 0 -8 3 7 3 9 12 6 20 -6 17 43 74
64 74 8 0 16 -7 20 -15z m-354 -87 c39 -32 31 -47 -8 -16 -16 13 -25 16 -20 9
6 -11 3 -13 -16 -7 -13 4 -30 8 -36 8 -8 1 -13 15 -13 35 l0 34 31 -18 c17
-10 45 -30 62 -45z m461 43 c3 -4 -4 -17 -15 -27 -28 -25 -49 -67 -49 -99 0
-25 -13 -34 -25 -15 -3 5 -11 7 -18 5 -7 -3 -19 0 -27 5 -13 9 -13 11 0 20 9
5 16 6 18 0 2 -5 10 -6 18 -3 12 4 13 8 4 13 -7 4 -9 13 -5 20 6 9 10 9 17 -1
7 -10 8 -7 4 11 -9 39 60 101 78 71z m-1026 -30 c25 -18 41 -22 66 -17 51 10
186 -13 241 -40 66 -32 149 -92 176 -127 33 -44 59 -122 59 -181 0 -79 -28
-115 -110 -143 -36 -12 -86 -25 -112 -28 -26 -3 -47 -10 -45 -14 1 -5 -9 -18
-23 -29 -25 -20 -23 -20 70 3 122 29 161 46 188 80 22 27 23 28 63 15 22 -8
49 -22 61 -32 13 -11 29 -16 43 -12 35 9 85 -45 85 -92 0 -47 10 -40 12 9 2
50 -27 107 -55 107 -27 0 -118 42 -133 61 -15 18 -26 67 -19 79 4 6 18 -4 33
-21 32 -39 95 -68 145 -69 22 0 37 -5 38 -12 0 -7 5 -3 11 10 16 32 37 28 36
-8 -1 -26 -4 -29 -22 -24 -20 7 -21 6 -3 -14 18 -19 18 -24 3 -83 -9 -34 -14
-64 -11 -67 2 -3 6 1 8 9 2 8 14 46 27 84 20 57 24 90 23 175 0 99 0 103 12
65 8 -22 14 -33 14 -24 1 9 -4 31 -11 49 -9 29 -9 35 7 47 24 17 35 17 35 -1
0 -7 16 -31 35 -52 24 -26 35 -48 35 -68 0 -38 28 -130 30 -101 2 14 4 11 10
-10 5 -16 20 -58 35 -93 38 -91 49 -168 35 -236 -6 -31 -16 -56 -22 -56 -6 0
-8 9 -4 23 16 52 17 143 2 187 -15 45 -15 44 -10 -60 7 -132 3 -139 -87 -142
-52 -2 -73 2 -102 19 -25 15 -34 17 -30 7 3 -8 -5 -22 -18 -33 -23 -18 -24
-18 -56 7 -26 19 -32 30 -27 46 6 19 5 18 -14 -4 l-20 -25 -58 21 c-55 20 -59
23 -62 55 l-3 34 26 -32 c22 -27 33 -33 63 -32 l37 1 -35 8 c-19 5 -45 21 -57
37 -12 15 -32 38 -44 51 -34 34 -15 38 64 12 88 -30 95 -34 107 -74 9 -29 9
-29 7 14 -2 48 -4 50 -101 80 -50 16 -76 39 -76 66 0 25 0 25 33 -10 33 -34
74 -52 99 -43 7 2 -4 9 -26 15 -60 17 -109 73 -51 58 35 -9 31 0 -7 20 -18 9
-46 28 -62 43 -16 14 -26 21 -23 15 3 -6 8 -21 10 -35 3 -13 8 -40 12 -60 6
-32 3 -39 -20 -58 -15 -11 -37 -21 -49 -21 -18 0 -16 3 11 23 18 12 35 28 38
35 3 7 -7 4 -21 -7 -24 -19 -87 -36 -164 -44 -32 -3 -31 -4 8 -5 54 -2 52 -21
-4 -41 -51 -18 -90 -8 -112 27 -9 16 -24 26 -33 24 -9 -1 -31 12 -50 30 -19
18 -52 41 -74 51 -22 10 -47 25 -57 33 -9 9 -25 14 -34 12 -13 -2 2 -18 52
-55 39 -29 81 -57 95 -63 13 -6 46 -26 74 -45 27 -19 55 -35 62 -35 18 0 16
-11 -7 -38 -26 -31 -44 -23 -102 44 -27 30 -48 51 -48 46 0 -20 60 -99 94
-125 l37 -29 -26 -20 c-25 -20 -26 -20 -40 -2 -8 11 -17 26 -20 35 -3 9 -25
22 -49 28 -24 6 -52 13 -62 17 -14 4 -13 1 6 -15 32 -26 15 -27 -28 -1 -45 27
-53 25 -18 -5 16 -14 39 -25 52 -25 13 0 29 -6 36 -14 11 -12 15 -11 24 6 10
18 12 17 36 -20 19 -28 27 -55 29 -99 2 -34 1 -65 -3 -69 -10 -9 -42 20 -81
71 -23 31 -28 35 -22 15 4 -14 13 -35 21 -47 13 -21 13 -23 -5 -23 -15 0 -26
17 -47 70 -15 38 -30 67 -35 65 -4 -3 -26 2 -49 11 -30 12 -60 15 -113 11 -63
-4 -74 -8 -98 -35 l-27 -30 -24 26 c-32 36 -53 85 -39 90 6 2 -3 14 -20 25
-75 51 -93 176 -41 277 15 30 38 62 52 72 14 10 73 32 130 47 58 16 97 30 86
30 -16 1 -17 3 -5 17 8 9 30 27 50 40 20 12 58 56 86 96 27 40 55 72 62 70 7
-1 10 2 6 7 -3 6 8 17 25 26 39 20 130 13 213 -17 128 -46 190 -196 99 -238
-76 -35 -220 -17 -290 37 -39 29 -52 26 -19 -5 36 -34 116 -59 193 -61 119 -4
172 30 175 113 0 17 3 16 14 -9 30 -65 9 -142 -46 -167 -19 -9 -55 -19 -81
-23 -41 -6 -48 -4 -57 14 -13 24 -59 29 -90 9 -26 -16 -96 11 -161 63 -28 22
-50 35 -50 30 0 -10 69 -67 106 -88 12 -6 37 -15 56 -18 21 -4 37 -14 43 -28
12 -27 66 -35 85 -13 7 9 28 16 50 16 46 0 99 17 125 41 15 13 25 15 38 8 15
-9 17 -4 17 58 0 114 -45 184 -165 262 -107 69 -228 78 -326 24 -28 -15 -45
-29 -39 -33 12 -8 -85 -102 -154 -149 -59 -41 -138 -71 -186 -71 -37 0 -40 2
-49 38 -15 50 -14 92 2 97 6 3 26 1 42 -3 36 -10 78 2 121 34 17 13 69 41 114
63 46 23 88 45 95 51 6 5 29 7 51 5 21 -2 30 -2 20 1 -10 3 -37 19 -59 35 -70
51 -157 33 -249 -52 -41 -38 -42 -39 -10 -24 25 12 37 13 53 5 15 -9 24 -8 35
1 8 6 18 9 22 5 7 -8 -13 -25 -86 -77 -74 -52 -142 -49 -142 7 0 28 63 92 68
69 3 -11 17 -4 52 28 71 64 104 78 175 74 44 -2 70 -9 93 -26z m-39 -5 c15
-18 0 -29 -66 -45 -54 -13 -73 -10 -73 14 0 38 113 63 139 31z m1128 -13 c27
-31 31 -53 5 -30 -22 20 -35 12 -71 -41 -24 -35 -43 -35 -37 1 3 12 5 26 5 31
1 5 9 2 19 -5 15 -13 16 -12 3 4 -12 15 -11 21 9 42 30 32 39 31 67 -2z m-190
-8 c6 -17 -25 -58 -37 -50 -5 3 -10 0 -12 -7 -3 -9 -12 -8 -31 5 -15 10 -27
13 -27 8 0 -6 8 -15 18 -20 15 -9 14 -10 -6 -11 -13 0 -21 -4 -17 -10 3 -5 13
-6 21 -3 13 5 15 1 10 -18 -7 -22 -5 -22 18 6 l25 29 28 -20 c36 -27 40 -48
14 -76 -12 -12 -21 -25 -21 -29 0 -4 -9 -9 -20 -12 -16 -4 -31 7 -64 49 l-43
55 12 52 c6 29 17 52 23 51 7 -1 19 -2 27 -2 8 -1 14 -7 13 -14 -4 -19 25 -20
47 -3 20 16 19 16 -2 6 -36 -18 -50 -12 -24 9 28 24 40 25 48 5z m-190 -37
c18 -18 33 -36 33 -40 0 -13 -27 -9 -33 5 -3 7 -23 19 -46 27 -46 15 -52 26
-18 33 12 2 24 5 27 6 2 0 19 -13 37 -31z m-105 2 c51 -14 58 -30 8 -18 -22 6
-56 7 -75 4 -36 -7 -57 -32 -38 -45 6 -3 20 -25 32 -48 12 -24 23 -43 26 -43
6 0 -9 40 -30 80 -8 16 -12 31 -7 33 21 12 131 -2 169 -21 46 -24 133 -128
125 -151 -3 -8 0 -11 7 -7 8 5 11 -15 11 -69 0 -63 -3 -76 -14 -72 -8 3 -20
-1 -26 -9 -7 -8 -22 -14 -34 -14 -86 0 -168 67 -204 166 -12 34 -38 82 -57
107 -31 41 -34 49 -23 72 6 15 24 29 42 34 42 12 46 12 88 1z m518 -27 c27
-16 50 -30 50 -33 -1 -3 -7 -14 -15 -24 -14 -18 -16 -18 -67 4 -29 12 -55 24
-56 25 -4 3 30 54 35 55 2 0 25 -12 53 -27z m94 -84 c-7 -12 -31 -11 -39 1 -4
6 -4 18 -1 27 6 14 8 14 26 -2 11 -10 17 -22 14 -26z m-150 14 l29 -15 -39
-35 c-21 -19 -33 -32 -27 -28 8 4 11 1 7 -8 -3 -9 -23 -17 -46 -19 -33 -3 -43
1 -59 20 -21 28 -15 48 26 80 29 23 69 25 109 5z m107 -43 c60 -21 92 -112 91
-250 -1 -72 -32 -202 -53 -224 -5 -6 -9 8 -9 35 0 52 -39 141 -93 211 -27 35
-39 63 -46 104 -8 54 -7 59 23 100 17 23 36 41 41 40 6 -2 26 -9 46 -16z m93
-32 c52 -107 55 -267 6 -405 -20 -56 -60 -131 -83 -155 -7 -7 -20 -23 -29 -36
-9 -13 -19 -19 -22 -14 -3 5 6 21 19 34 30 30 98 173 114 240 25 107 6 303
-35 349 -16 18 -19 39 -5 39 5 0 21 -24 35 -52z m-269 -47 c8 -15 -13 -23 -38
-15 -21 7 -21 7 -2 15 27 10 33 10 40 0z m56 -126 c11 -44 29 -107 40 -139 10
-33 19 -71 18 -85 0 -19 -4 -14 -14 19 -26 88 -38 119 -46 115 -8 -5 -13 16
-26 100 -6 46 -7 48 -14 20 -6 -28 -7 -28 -8 -5 -1 14 -4 36 -8 49 -4 16 -2
22 4 18 6 -4 14 1 18 11 7 15 8 15 12 -3 2 -11 13 -56 24 -100z m-761 -45 c8
-15 6 -21 -10 -30 -29 -16 -64 -9 -68 14 -7 37 59 51 78 16z m836 -75 c57
-116 55 -202 -7 -304 -33 -55 -33 -27 0 39 31 61 43 99 15 47 -20 -36 -28 -28
-20 18 7 35 20 46 29 23 3 -7 6 5 6 28 1 22 -4 45 -11 52 -7 7 -9 12 -5 12 3
0 -9 36 -28 80 -19 44 -30 80 -25 80 5 0 26 -34 46 -75z m-576 -174 c5 -11 10
-38 10 -60 0 -47 -26 -72 -75 -70 l-30 1 32 9 c36 10 63 43 63 74 -1 15 -5 11
-15 -13 -16 -37 -63 -62 -122 -63 -29 0 -33 -2 -18 -8 11 -5 27 -6 35 -4 10 3
8 -1 -4 -11 -25 -20 -41 -20 -93 1 -90 38 -54 104 64 120 27 3 66 14 88 24 50
23 52 23 65 0z m69 -127 c37 -15 39 -17 23 -33 -16 -17 -18 -17 -37 0 -20 18
-23 19 -51 19 -8 0 -12 5 -9 11 4 6 14 8 22 5 8 -3 11 -1 8 4 -8 13 -2 13 44
-6z m-291 -56 c19 -19 16 -228 -4 -278 -24 -60 -92 -88 -145 -60 -14 8 -19 21
-19 53 0 53 16 73 41 51 32 -29 39 -8 39 116 0 85 3 120 13 123 23 10 63 7 75
-5z m243 -11 c96 -64 98 -260 2 -322 -40 -27 -111 -25 -151 4 -89 63 -95 220
-12 303 32 33 44 38 82 38 30 0 56 -8 79 -23z m177 10 c6 -7 12 -40 14 -72 l3
-60 35 65 c20 37 43 66 53 68 34 7 67 -7 67 -29 0 -20 -37 -99 -63 -133 -13
-18 -10 -27 25 -92 49 -91 48 -118 -4 -122 -37 -3 -37 -3 -77 75 l-40 78 -1
-68 0 -68 -47 3 -48 3 -3 169 c-2 116 1 173 9 182 14 18 63 18 77 1z m-778
-15 c90 -45 106 -199 29 -287 -35 -40 -76 -55 -156 -58 l-58 -2 -3 170 c-1 93
0 175 2 182 8 20 143 17 186 -5z m-293 0 c13 -8 78 -221 89 -289 8 -52 -6 -73
-48 -73 -24 0 -32 6 -41 30 -10 26 -16 30 -41 28 -23 -2 -31 -9 -37 -32 -5
-16 -14 -33 -21 -37 -22 -15 -68 -10 -75 7 -6 16 57 268 82 331 10 23 21 33
42 36 15 2 30 5 33 5 3 1 10 -2 17 -6z m1463 -15 c28 -14 38 -51 19 -74 -10
-11 -27 -14 -71 -11 -50 4 -58 2 -58 -13 0 -12 12 -19 45 -23 30 -5 49 -14 56
-27 23 -44 -18 -79 -76 -65 -22 6 -25 3 -25 -18 0 -22 5 -25 58 -32 68 -8 82
-17 82 -54 0 -44 -18 -51 -111 -44 -140 11 -129 -5 -129 197 0 96 3 177 8 181
10 11 172 -3 202 -17z m-1705 -31 c19 -8 44 -30 55 -48 18 -28 21 -45 17 -114
-6 -138 -52 -191 -186 -216 -95 -18 -91 -25 -91 180 0 132 3 182 13 190 27 23
145 27 192 8z m1953 -6 c36 -22 39 -39 15 -81 -20 -34 -22 -34 -67 -13 -35 17
-73 13 -61 -6 4 -6 35 -23 70 -39 71 -33 95 -65 95 -128 0 -40 -21 -73 -57
-92 -45 -23 -155 -8 -195 26 -15 13 -15 19 -2 54 20 59 19 58 73 31 50 -24 87
-24 79 0 -3 7 -27 22 -55 33 -28 11 -60 28 -71 38 -52 47 -53 128 -1 171 40
34 127 36 177 6z m58 -138 c-14 -14 -16 -14 -21 0 -4 9 2 29 12 44 l18 28 3
-28 c2 -16 -3 -35 -12 -44z m-1293 47 c20 -5 37 -13 37 -17 0 -10 -74 -32 -81
-24 -4 4 -10 17 -14 30 -7 25 1 27 58 11z m-37 -90 c-7 -39 13 -89 49 -117
l27 -21 -27 -35 c-15 -20 -32 -57 -39 -83 -7 -26 -18 -48 -24 -47 -7 1 -21 2
-32 3 -18 1 -20 8 -20 59 0 52 -4 62 -31 90 l-31 31 44 51 c23 27 49 48 56 45
8 -3 12 6 12 25 0 17 5 30 11 30 7 0 9 -11 5 -31z m289 -111 c72 -51 53 -83
-21 -33 -20 14 -43 25 -50 25 -17 0 -18 12 -2 28 17 17 22 16 73 -20z m249
-17 c34 -36 19 -50 -30 -26 -37 17 -41 24 -22 43 17 17 21 16 52 -17z m-977
-27 c22 -20 23 -24 8 -19 -11 4 -28 10 -37 12 -19 5 -25 33 -9 33 6 0 23 -12
38 -26z m682 -12 c121 -65 68 -232 -73 -232 -43 0 -53 4 -87 39 -32 32 -39 46
-39 77 0 51 18 83 59 111 41 28 94 30 140 5z m-360 -1 c9 -6 14 -34 15 -92 l1
-83 51 3 c53 2 79 -13 69 -41 -4 -11 -29 -17 -87 -21 -44 -4 -85 -4 -89 -1
-15 9 -11 231 4 237 18 8 21 8 36 -2z m611 -18 c42 -26 60 -55 59 -98 0 -72
-53 -115 -141 -115 l-58 0 0 113 c0 63 3 117 8 121 11 12 104 -3 132 -21z
m846 -10 c-10 -29 -18 -37 -32 -35 -11 2 -21 5 -22 7 -3 3 58 64 65 65 1 0 -4
-17 -11 -37z m-1956 10 c0 -25 -63 -78 -108 -91 -62 -19 -125 -15 -156 9 -26
21 -35 49 -15 49 6 0 13 -9 16 -19 3 -11 15 -22 27 -25 30 -7 124 8 172 29 34
15 37 18 22 28 -15 10 -15 12 0 24 24 17 42 16 42 -4z m425 -13 c0 -24 -3 -25
-62 -28 -55 -3 -63 -6 -63 -22 0 -17 6 -20 48 -17 44 2 47 0 47 -23 0 -23 -4
-25 -47 -28 -37 -2 -48 -7 -48 -20 0 -14 10 -17 63 -17 60 0 62 -1 62 -25 0
-24 -3 -25 -90 -32 -49 -4 -90 -6 -91 -5 -1 1 -3 54 -5 117 l-4 115 30 6 c17
4 59 6 95 6 62 -2 65 -3 65 -27z m957 12 c9 -9 10 -17 1 -30 -8 -13 -23 -16
-68 -14 -49 2 -56 0 -53 -15 2 -13 15 -18 43 -20 68 -5 80 -17 50 -46 -10 -11
-27 -14 -55 -10 -32 5 -40 3 -40 -10 0 -12 13 -17 56 -19 61 -3 88 -24 67 -50
-8 -10 -32 -12 -95 -8 l-83 5 -3 119 -3 118 85 -3 c51 -3 90 -9 98 -17z m165
-25 c70 -37 85 -113 33 -166 -33 -32 -74 -45 -131 -39 l-34 3 -3 109 c-2 70 1
112 8 116 16 10 90 -4 127 -23z m-1374 -4 c21 -20 22 -61 1 -92 -15 -21 -15
-24 11 -51 32 -33 28 -60 -9 -60 -17 0 -35 12 -53 35 l-28 35 -5 -31 c-6 -40
-32 -58 -54 -40 -13 11 -16 34 -16 105 0 50 4 96 8 103 16 26 114 23 145 -4z
m1509 5 c-2 -11 11 -21 40 -31 82 -30 122 -30 191 -2 29 12 19 -13 -13 -30
-54 -28 -174 -11 -221 31 -15 13 -17 13 -23 -3 -6 -15 -10 -13 -31 12 -33 41
-31 47 18 43 33 -2 41 -7 39 -20z m-1674 -248 c21 -17 35 -20 67 -16 40 6 54
7 98 5 12 -1 123 2 247 6 173 6 229 11 242 22 14 13 20 12 47 -1 45 -24 148
-21 190 5 l33 20 15 -20 c13 -19 25 -21 108 -21 52 0 97 4 100 10 4 6 12 6 23
0 23 -13 358 -29 402 -19 67 15 108 87 79 140 -5 11 -9 28 -7 37 3 13 10 8 26
-18 15 -24 22 -51 22 -88 0 -45 -4 -57 -32 -88 l-33 -35 -811 -1 c-589 0 -817
3 -832 11 -51 27 -68 128 -35 199 l18 37 3 -82 c3 -76 5 -84 30 -103z"/>
<path d="M708 2648 c-17 -13 -42 -123 -32 -139 9 -16 36 -10 41 10 6 24 44 42
65 30 9 -5 22 -3 34 6 18 13 17 16 -26 59 -47 49 -57 53 -82 34z"/>
<path d="M580 2595 c-7 -8 -10 -24 -7 -34 3 -12 -1 -22 -11 -26 -14 -5 -31 10
-32 28 0 14 -41 7 -47 -10 -7 -17 13 -102 27 -116 4 -5 18 -6 30 -2 17 5 21
13 17 32 -6 31 20 44 39 19 7 -10 21 -16 31 -14 14 3 18 12 16 42 -3 41 -22
88 -39 93 -6 2 -17 -3 -24 -12z"/>
<path d="M750 2504 c-14 -16 -41 -144 -34 -156 10 -16 34 -7 50 17 19 29 47
40 71 26 22 -11 53 3 53 24 0 16 -97 105 -115 105 -7 0 -18 -7 -25 -16z"/>
<path d="M622 2444 c-16 -11 -20 -22 -16 -38 8 -34 -30 -43 -44 -11 -8 17 -17
22 -31 18 -29 -7 -31 -23 -13 -88 18 -63 33 -76 62 -50 15 13 17 22 10 36 -8
14 -6 21 9 29 27 14 31 13 31 -9 0 -28 17 -35 44 -17 l24 15 -17 56 c-22 70
-31 79 -59 59z"/>
<path d="M1250 2593 c0 -6 6 -13 12 -15 9 -3 8 -9 -5 -22 -16 -16 -18 -16 -33
-1 -20 20 -32 11 -14 -10 18 -21 47 -19 61 6 9 17 8 25 -5 37 -9 9 -16 11 -16
5z"/>
<path d="M1199 2477 c-47 -29 -68 -46 -104 -85 -23 -25 -25 -31 -11 -26 11 4
33 22 49 40 15 18 53 45 83 60 30 14 54 28 54 30 0 11 -39 0 -71 -19z"/>
<path d="M1873 2475 c27 -15 51 -24 54 -21 8 7 -39 34 -72 41 -24 5 -21 1 18
-20z"/>
<path d="M2213 2143 c-25 -3 -33 -9 -33 -24 0 -22 11 -24 28 -7 9 9 12 9 13
-2 1 -8 2 -19 3 -25 1 -5 28 -37 60 -70 32 -33 76 -91 99 -129 23 -38 43 -64
45 -57 3 9 8 9 20 -1 10 -7 5 1 -10 18 -16 17 -28 41 -28 55 0 17 -3 20 -9 10
-6 -9 -11 -10 -15 -2 -10 15 3 33 16 25 7 -4 8 -2 4 4 -4 7 -15 12 -26 12 -20
0 -33 25 -25 50 6 17 -30 58 -41 47 -4 -3 -15 -2 -26 4 -19 10 -19 11 -2 30 9
10 14 22 10 26 -4 4 -11 2 -15 -5 -11 -18 -33 10 -25 32 3 9 2 15 -2 14 -5 0
-24 -3 -41 -5z"/>
<path d="M863 2123 c4 -6 4 -18 1 -27 -5 -13 -9 -14 -20 -5 -17 14 -19 -2 -3
-18 17 -17 0 -35 -27 -29 -26 7 -31 -3 -13 -21 9 -9 8 -16 -4 -27 -10 -10 -18
-12 -22 -6 -12 19 -22 10 -17 -15 3 -20 0 -25 -17 -25 -18 0 -20 -3 -12 -18
13 -25 -4 -54 -19 -32 -8 12 -10 9 -10 -12 0 -15 -4 -30 -10 -33 -14 -9 -12
-25 3 -25 6 0 25 23 41 50 31 52 158 191 190 208 11 5 16 14 12 21 -6 9 -11 9
-22 0 -11 -9 -19 -8 -36 7 -12 11 -18 14 -15 7z"/>
<path d="M666 1786 c-4 -20 -11 -36 -17 -36 -6 0 -7 -4 -4 -10 3 -5 9 -10 13
-10 11 0 31 74 23 83 -5 5 -12 -8 -15 -27z"/>
<path d="M627 1678 c-3 -12 -4 -25 -1 -30 10 -17 22 -7 26 22 5 35 -16 42 -25
8z"/>
<path d="M2056 2542 c-4 -7 -9 -123 -7 -159 1 -9 18 -13 52 -13 47 0 50 2 47
23 -2 14 -11 23 -25 25 -21 3 -23 9 -23 56 0 28 -5 57 -12 64 -14 14 -25 15
-32 4z"/>
<path d="M2189 2521 c-38 -38 -39 -80 -1 -120 59 -65 162 -30 162 54 0 51 -44
95 -95 95 -27 0 -44 -8 -66 -29z m99 -33 c18 -18 14 -45 -10 -62 -37 -26 -79
14 -58 55 12 21 50 25 68 7z"/>
<path d="M2377 2544 c-4 -4 -7 -45 -7 -91 l0 -84 48 3 c39 3 47 6 47 23 0 13
-7 20 -20 20 -17 0 -21 8 -25 65 -4 48 -9 66 -20 68 -9 1 -19 0 -23 -4z"/>
<path d="M1560 2461 c-14 -4 -35 -22 -47 -41 -13 -19 -27 -41 -33 -47 -19 -23
6 -14 34 12 32 30 100 35 110 9 11 -29 6 -37 -13 -20 -17 16 -24 16 -58 5 -53
-18 -63 -29 -26 -29 17 0 33 6 35 12 4 10 11 10 33 0 40 -18 15 -33 -45 -26
-33 4 -41 3 -30 -5 23 -16 96 -13 110 4 7 8 10 26 8 40 -4 21 -1 25 17 25 13
0 26 7 29 16 8 20 8 24 -1 22 -5 -1 -17 3 -28 8 -30 17 -67 22 -95 15z m70
-21 c22 -14 10 -17 -40 -12 -35 4 -41 7 -25 13 27 11 47 10 65 -1z"/>
<path d="M1295 2309 c-9 -28 0 -35 20 -15 9 9 21 14 26 11 5 -4 6 1 3 9 -9 23
-42 20 -49 -5z"/>
<path d="M641 1100 c-1 -9 7 -26 16 -40 16 -22 16 -23 0 -17 -9 3 -1 -9 18
-29 19 -19 35 -39 35 -43 0 -5 7 -11 15 -14 20 -8 -1 39 -34 76 -14 15 -31 40
-37 55 -7 15 -13 20 -13 12z"/>
<path d="M706 1062 c5 -4 22 -18 38 -32 16 -14 26 -19 22 -12 -5 7 0 15 13 20
21 7 21 7 1 20 -12 7 -20 8 -20 2 0 -5 -7 -10 -15 -10 -8 0 -15 5 -15 10 0 6
-8 10 -17 10 -9 0 -13 -3 -7 -8z"/>
<path d="M1470 1973 c0 -12 125 -133 137 -133 5 0 18 7 29 15 18 14 17 14 -13
15 -25 0 -46 13 -92 56 -34 31 -61 52 -61 47z"/>
<path d="M1348 1758 c18 -18 182 -36 182 -20 0 11 -45 20 -138 26 -31 2 -50 0
-44 -6z"/>
<path d="M1281 1721 c0 -14 6 -32 15 -42 15 -17 14 -19 -18 -36 -65 -35 -98
-58 -98 -70 0 -22 18 -15 80 31 33 24 66 46 72 49 9 3 4 12 -14 26 -15 12 -29
31 -31 44 -4 21 -4 21 -6 -2z"/>
<path d="M2117 1508 c-6 -52 1 -227 9 -237 2 -2 5 27 5 65 1 55 3 63 10 39 5
-19 6 2 2 53 -3 46 -8 96 -12 110 -6 22 -9 17 -14 -30z"/>
<path d="M1199 1475 c20 -38 94 -105 116 -105 4 0 -10 13 -32 29 -22 16 -52
44 -67 62 -15 19 -23 25 -17 14z"/>
<path d="M941 1463 c-71 -14 -123 -102 -125 -212 0 -38 2 -72 5 -76 4 -3 19
-8 35 -10 26 -4 27 -3 8 6 -33 17 -49 52 -35 78 12 21 31 29 31 13 0 -5 12
-14 26 -20 28 -14 47 -7 81 30 24 26 72 146 66 166 -7 19 -23 14 -23 -8 0 -11
-7 -20 -15 -20 -21 0 -93 -40 -75 -41 28 -2 45 3 64 19 18 16 19 16 12 -18 -8
-41 -48 -105 -75 -120 -15 -7 -23 -6 -35 6 -39 39 4 144 75 182 23 12 45 24
47 27 6 6 -32 4 -67 -2z"/>
<path d="M1680 1299 c-19 -10 -46 -22 -60 -28 -24 -9 -23 -10 12 -10 25 -1 46
7 65 23 36 31 28 37 -17 15z"/>
<path d="M2051 1239 c-1 -67 21 -138 55 -170 15 -14 42 -25 74 -29 l50 -6 0
40 -1 41 -14 -32 c-11 -26 -20 -33 -42 -33 -60 1 -103 67 -113 175 l-7 70 -2
-56z"/>
<path d="M1170 1267 c0 -19 22 -27 73 -27 41 1 42 1 17 15 -30 17 -44 19 -35
5 9 -15 -8 -12 -33 6 -19 13 -22 13 -22 1z"/>
<path d="M1080 1219 c-7 -17 -24 -47 -38 -67 -15 -22 -18 -31 -7 -22 18 15 69
109 62 116 -2 3 -10 -9 -17 -27z"/>
<path d="M1151 1215 c6 -26 73 -62 134 -70 28 -4 46 -4 42 1 -12 12 -98 44
-91 33 12 -20 -18 -7 -52 23 -30 26 -36 29 -33 13z"/>
<path d="M1807 1733 c19 -10 38 -13 50 -8 15 7 14 9 -12 15 -55 14 -73 10 -38
-7z"/>
<path d="M1780 1644 c0 -22 62 -105 92 -124 39 -24 119 -24 126 0 4 12 2 13
-9 3 -7 -7 -26 -13 -42 -13 -52 0 -95 29 -132 88 -19 31 -35 52 -35 46z"/>
<path d="M2374 1609 l27 -21 -21 -15 c-11 -8 -27 -12 -34 -10 -10 4 -16 -5
-19 -26 -6 -40 -2 -47 28 -47 26 0 38 -23 29 -54 -5 -17 -4 -19 7 -8 7 6 17
12 21 12 13 0 9 -28 -4 -33 -9 -4 -9 -6 1 -6 8 -1 23 -9 34 -18 11 -10 18 -13
16 -8 -3 6 -11 23 -19 38 -11 22 -12 32 -2 47 18 30 15 35 -20 35 -24 0 -33 5
-36 19 -6 27 25 48 49 35 17 -9 17 -7 5 22 -13 31 -47 58 -75 59 -7 0 -2 -10
13 -21z"/>
<path d="M1690 1124 c-14 -7 -34 -14 -45 -14 -18 -1 -18 -2 -3 -10 19 -12 64
5 72 26 3 8 4 14 3 13 -1 -1 -13 -7 -27 -15z"/>
<path d="M1690 880 c-42 -42 -12 -152 37 -136 44 14 53 97 16 139 -21 22 -28
22 -53 -3z"/>
<path d="M1095 810 c0 -89 8 -98 50 -55 44 43 24 135 -28 135 -21 0 -22 -4
-22 -80z"/>
<path d="M850 836 c0 -7 -3 -28 -6 -45 -6 -27 -4 -31 16 -31 18 0 21 4 16 23
-3 12 -6 32 -6 45 0 12 -4 22 -10 22 -5 0 -10 -6 -10 -14z"/>
<path d="M557 833 c-4 -3 -7 -44 -7 -90 0 -93 10 -104 55 -58 33 32 35 105 5
135 -20 20 -41 25 -53 13z"/>
<path d="M1460 503 c-36 -46 -8 -106 49 -106 42 0 71 28 71 69 0 63 -80 88
-120 37z m90 -37 c0 -35 -25 -52 -55 -38 -31 14 -32 46 -3 66 27 19 58 5 58
-28z"/>
<path d="M1759 515 c-2 -2 -3 -30 -1 -63 3 -52 6 -59 22 -55 32 8 53 40 46 67
-6 22 -57 62 -67 51z"/>
<path d="M2198 435 c4 -61 17 -70 52 -35 26 26 25 36 -5 65 -39 40 -50 33 -47
-30z"/>
<path d="M810 460 c0 -18 3 -19 20 -10 22 12 18 30 -6 30 -8 0 -14 -9 -14 -20z"/>
</g>
</svg>
